<mxfile host="65bd71144e">
    <diagram id="wp01CQi8qCcDfbbiqwAq" name="第 1 页">
        <mxGraphModel dx="869" dy="-8487" grid="0" gridSize="10" guides="1" tooltips="1" connect="1" arrows="1" fold="1" page="1" pageScale="1" pageWidth="700" pageHeight="700" math="0" shadow="0">
            <root>
                <mxCell id="0"/>
                <mxCell id="1" parent="0"/>
                <mxCell id="368" value="" style="shape=table;startSize=0;container=1;collapsible=0;childLayout=tableLayout;fontSize=24;strokeColor=none;fillColor=none;" parent="1" vertex="1">
                    <mxGeometry x="105" y="9758" width="265" height="32" as="geometry"/>
                </mxCell>
                <mxCell id="369" value="" style="shape=tableRow;horizontal=0;startSize=0;swimlaneHead=0;swimlaneBody=0;strokeColor=inherit;top=0;left=0;bottom=0;right=0;collapsible=0;dropTarget=0;fillColor=none;points=[[0,0.5],[1,0.5]];portConstraint=eastwest;fontSize=24;" parent="368" vertex="1">
                    <mxGeometry width="265" height="32" as="geometry"/>
                </mxCell>
                <mxCell id="370" value="&lt;font style=&quot;font-size: 18px;&quot;&gt;0&lt;/font&gt;" style="shape=partialRectangle;html=1;whiteSpace=wrap;connectable=0;strokeColor=inherit;overflow=hidden;fillColor=none;top=0;left=0;bottom=0;right=0;pointerEvents=1;fontSize=24;" parent="369" vertex="1">
                    <mxGeometry width="53" height="32" as="geometry">
                        <mxRectangle width="53" height="32" as="alternateBounds"/>
                    </mxGeometry>
                </mxCell>
                <mxCell id="371" value="&lt;font style=&quot;font-size: 18px;&quot;&gt;1&lt;/font&gt;" style="shape=partialRectangle;html=1;whiteSpace=wrap;connectable=0;strokeColor=inherit;overflow=hidden;fillColor=none;top=0;left=0;bottom=0;right=0;pointerEvents=1;fontSize=24;" parent="369" vertex="1">
                    <mxGeometry x="53" width="54" height="32" as="geometry">
                        <mxRectangle width="54" height="32" as="alternateBounds"/>
                    </mxGeometry>
                </mxCell>
                <mxCell id="372" value="&lt;font style=&quot;font-size: 18px;&quot;&gt;2&lt;/font&gt;" style="shape=partialRectangle;html=1;whiteSpace=wrap;connectable=0;strokeColor=#d79b00;overflow=hidden;fillColor=#99FFFF;top=0;left=0;bottom=0;right=0;pointerEvents=1;fontSize=24;" parent="369" vertex="1">
                    <mxGeometry x="107" width="53" height="32" as="geometry">
                        <mxRectangle width="53" height="32" as="alternateBounds"/>
                    </mxGeometry>
                </mxCell>
                <mxCell id="373" value="&lt;font style=&quot;font-size: 18px;&quot;&gt;3&lt;/font&gt;" style="shape=partialRectangle;html=1;whiteSpace=wrap;connectable=0;strokeColor=inherit;overflow=hidden;fillColor=none;top=0;left=0;bottom=0;right=0;pointerEvents=1;fontSize=24;" parent="369" vertex="1">
                    <mxGeometry x="160" width="53" height="32" as="geometry">
                        <mxRectangle width="53" height="32" as="alternateBounds"/>
                    </mxGeometry>
                </mxCell>
                <mxCell id="374" value="&lt;font style=&quot;font-size: 18px;&quot;&gt;4&lt;/font&gt;" style="shape=partialRectangle;html=1;whiteSpace=wrap;connectable=0;strokeColor=inherit;overflow=hidden;fillColor=none;top=0;left=0;bottom=0;right=0;pointerEvents=1;fontSize=24;" parent="369" vertex="1">
                    <mxGeometry x="213" width="52" height="32" as="geometry">
                        <mxRectangle width="52" height="32" as="alternateBounds"/>
                    </mxGeometry>
                </mxCell>
                <mxCell id="2" value="" style="shape=table;startSize=0;container=1;collapsible=0;childLayout=tableLayout;fontSize=18;strokeWidth=0.5;" parent="1" vertex="1">
                    <mxGeometry x="165" y="9175" width="160" height="160" as="geometry"/>
                </mxCell>
                <mxCell id="3" value="" style="shape=tableRow;horizontal=0;startSize=0;swimlaneHead=0;swimlaneBody=0;strokeColor=inherit;top=0;left=0;bottom=0;right=0;collapsible=0;dropTarget=0;fillColor=none;points=[[0,0.5],[1,0.5]];portConstraint=eastwest;fontSize=18;" parent="2" vertex="1">
                    <mxGeometry width="160" height="40" as="geometry"/>
                </mxCell>
                <mxCell id="4" value="0" style="shape=partialRectangle;html=1;whiteSpace=wrap;connectable=0;strokeColor=inherit;overflow=hidden;fillColor=none;top=0;left=0;bottom=0;right=0;pointerEvents=1;fontSize=18;" parent="3" vertex="1">
                    <mxGeometry width="40" height="40" as="geometry">
                        <mxRectangle width="40" height="40" as="alternateBounds"/>
                    </mxGeometry>
                </mxCell>
                <mxCell id="5" value="1" style="shape=partialRectangle;html=1;whiteSpace=wrap;connectable=0;strokeColor=#6c8ebf;overflow=hidden;fillColor=#dae8fc;top=0;left=0;bottom=0;right=0;pointerEvents=1;fontSize=18;" parent="3" vertex="1">
                    <mxGeometry x="40" width="40" height="40" as="geometry">
                        <mxRectangle width="40" height="40" as="alternateBounds"/>
                    </mxGeometry>
                </mxCell>
                <mxCell id="6" value="0" style="shape=partialRectangle;html=1;whiteSpace=wrap;connectable=0;strokeColor=inherit;overflow=hidden;fillColor=none;top=0;left=0;bottom=0;right=0;pointerEvents=1;fontSize=18;" parent="3" vertex="1">
                    <mxGeometry x="80" width="40" height="40" as="geometry">
                        <mxRectangle width="40" height="40" as="alternateBounds"/>
                    </mxGeometry>
                </mxCell>
                <mxCell id="7" value="0" style="shape=partialRectangle;html=1;whiteSpace=wrap;connectable=0;strokeColor=inherit;overflow=hidden;fillColor=none;top=0;left=0;bottom=0;right=0;pointerEvents=1;fontSize=18;" parent="3" vertex="1">
                    <mxGeometry x="120" width="40" height="40" as="geometry">
                        <mxRectangle width="40" height="40" as="alternateBounds"/>
                    </mxGeometry>
                </mxCell>
                <mxCell id="14" value="" style="shape=tableRow;horizontal=0;startSize=0;swimlaneHead=0;swimlaneBody=0;strokeColor=inherit;top=0;left=0;bottom=0;right=0;collapsible=0;dropTarget=0;fillColor=none;points=[[0,0.5],[1,0.5]];portConstraint=eastwest;fontSize=18;" parent="2" vertex="1">
                    <mxGeometry y="40" width="160" height="40" as="geometry"/>
                </mxCell>
                <mxCell id="15" value="0" style="shape=partialRectangle;html=1;whiteSpace=wrap;connectable=0;strokeColor=inherit;overflow=hidden;fillColor=none;top=0;left=0;bottom=0;right=0;pointerEvents=1;fontSize=18;" parent="14" vertex="1">
                    <mxGeometry width="40" height="40" as="geometry">
                        <mxRectangle width="40" height="40" as="alternateBounds"/>
                    </mxGeometry>
                </mxCell>
                <mxCell id="16" value="0" style="shape=partialRectangle;html=1;whiteSpace=wrap;connectable=0;strokeColor=inherit;overflow=hidden;fillColor=none;top=0;left=0;bottom=0;right=0;pointerEvents=1;fontSize=18;" parent="14" vertex="1">
                    <mxGeometry x="40" width="40" height="40" as="geometry">
                        <mxRectangle width="40" height="40" as="alternateBounds"/>
                    </mxGeometry>
                </mxCell>
                <mxCell id="17" value="0" style="shape=partialRectangle;html=1;whiteSpace=wrap;connectable=0;strokeColor=inherit;overflow=hidden;fillColor=none;top=0;left=0;bottom=0;right=0;pointerEvents=1;fontSize=18;" parent="14" vertex="1">
                    <mxGeometry x="80" width="40" height="40" as="geometry">
                        <mxRectangle width="40" height="40" as="alternateBounds"/>
                    </mxGeometry>
                </mxCell>
                <mxCell id="18" value="0" style="shape=partialRectangle;html=1;whiteSpace=wrap;connectable=0;strokeColor=inherit;overflow=hidden;fillColor=none;top=0;left=0;bottom=0;right=0;pointerEvents=1;fontSize=18;" parent="14" vertex="1">
                    <mxGeometry x="120" width="40" height="40" as="geometry">
                        <mxRectangle width="40" height="40" as="alternateBounds"/>
                    </mxGeometry>
                </mxCell>
                <mxCell id="25" value="" style="shape=tableRow;horizontal=0;startSize=0;swimlaneHead=0;swimlaneBody=0;strokeColor=inherit;top=0;left=0;bottom=0;right=0;collapsible=0;dropTarget=0;fillColor=none;points=[[0,0.5],[1,0.5]];portConstraint=eastwest;fontSize=18;" parent="2" vertex="1">
                    <mxGeometry y="80" width="160" height="40" as="geometry"/>
                </mxCell>
                <mxCell id="26" value="3" style="shape=partialRectangle;html=1;whiteSpace=wrap;connectable=0;strokeColor=#6c8ebf;overflow=hidden;fillColor=#dae8fc;top=0;left=0;bottom=0;right=0;pointerEvents=1;fontSize=18;" parent="25" vertex="1">
                    <mxGeometry width="40" height="40" as="geometry">
                        <mxRectangle width="40" height="40" as="alternateBounds"/>
                    </mxGeometry>
                </mxCell>
                <mxCell id="27" value="0" style="shape=partialRectangle;html=1;whiteSpace=wrap;connectable=0;strokeColor=inherit;overflow=hidden;fillColor=none;top=0;left=0;bottom=0;right=0;pointerEvents=1;fontSize=18;" parent="25" vertex="1">
                    <mxGeometry x="40" width="40" height="40" as="geometry">
                        <mxRectangle width="40" height="40" as="alternateBounds"/>
                    </mxGeometry>
                </mxCell>
                <mxCell id="28" value="0" style="shape=partialRectangle;html=1;whiteSpace=wrap;connectable=0;strokeColor=inherit;overflow=hidden;fillColor=none;top=0;left=0;bottom=0;right=0;pointerEvents=1;fontSize=18;" parent="25" vertex="1">
                    <mxGeometry x="80" width="40" height="40" as="geometry">
                        <mxRectangle width="40" height="40" as="alternateBounds"/>
                    </mxGeometry>
                </mxCell>
                <mxCell id="29" value="10" style="shape=partialRectangle;html=1;whiteSpace=wrap;connectable=0;strokeColor=#6c8ebf;overflow=hidden;fillColor=#dae8fc;top=0;left=0;bottom=0;right=0;pointerEvents=1;fontSize=18;" parent="25" vertex="1">
                    <mxGeometry x="120" width="40" height="40" as="geometry">
                        <mxRectangle width="40" height="40" as="alternateBounds"/>
                    </mxGeometry>
                </mxCell>
                <mxCell id="36" value="" style="shape=tableRow;horizontal=0;startSize=0;swimlaneHead=0;swimlaneBody=0;strokeColor=inherit;top=0;left=0;bottom=0;right=0;collapsible=0;dropTarget=0;fillColor=none;points=[[0,0.5],[1,0.5]];portConstraint=eastwest;fontSize=18;" parent="2" vertex="1">
                    <mxGeometry y="120" width="160" height="40" as="geometry"/>
                </mxCell>
                <mxCell id="37" value="0" style="shape=partialRectangle;html=1;whiteSpace=wrap;connectable=0;strokeColor=#6c8ebf;overflow=hidden;fillColor=none;top=0;left=0;bottom=0;right=0;pointerEvents=1;fontSize=18;" parent="36" vertex="1">
                    <mxGeometry width="40" height="40" as="geometry">
                        <mxRectangle width="40" height="40" as="alternateBounds"/>
                    </mxGeometry>
                </mxCell>
                <mxCell id="38" value="0" style="shape=partialRectangle;html=1;whiteSpace=wrap;connectable=0;strokeColor=inherit;overflow=hidden;fillColor=none;top=0;left=0;bottom=0;right=0;pointerEvents=1;fontSize=18;" parent="36" vertex="1">
                    <mxGeometry x="40" width="40" height="40" as="geometry">
                        <mxRectangle width="40" height="40" as="alternateBounds"/>
                    </mxGeometry>
                </mxCell>
                <mxCell id="39" value="0" style="shape=partialRectangle;html=1;whiteSpace=wrap;connectable=0;strokeColor=inherit;overflow=hidden;fillColor=none;top=0;left=0;bottom=0;right=0;pointerEvents=1;fontSize=18;" parent="36" vertex="1">
                    <mxGeometry x="80" width="40" height="40" as="geometry">
                        <mxRectangle width="40" height="40" as="alternateBounds"/>
                    </mxGeometry>
                </mxCell>
                <mxCell id="40" value="0" style="shape=partialRectangle;html=1;whiteSpace=wrap;connectable=0;strokeColor=inherit;overflow=hidden;fillColor=none;top=0;left=0;bottom=0;right=0;pointerEvents=1;fontSize=18;" parent="36" vertex="1">
                    <mxGeometry x="120" width="40" height="40" as="geometry">
                        <mxRectangle width="40" height="40" as="alternateBounds"/>
                    </mxGeometry>
                </mxCell>
                <mxCell id="124" value="" style="shape=table;startSize=0;container=1;collapsible=0;childLayout=tableLayout;fontSize=18;strokeWidth=0.5;" parent="1" vertex="1">
                    <mxGeometry x="379" y="9175" width="40" height="160" as="geometry"/>
                </mxCell>
                <mxCell id="125" value="" style="shape=tableRow;horizontal=0;startSize=0;swimlaneHead=0;swimlaneBody=0;strokeColor=inherit;top=0;left=0;bottom=0;right=0;collapsible=0;dropTarget=0;fillColor=none;points=[[0,0.5],[1,0.5]];portConstraint=eastwest;fontSize=18;" parent="124" vertex="1">
                    <mxGeometry width="40" height="40" as="geometry"/>
                </mxCell>
                <mxCell id="126" value="&lt;font data-font-src=&quot;https://fonts.googleapis.com/css?family=Linux+Libertine&quot;&gt;2&lt;/font&gt;" style="shape=partialRectangle;html=1;whiteSpace=wrap;connectable=0;strokeColor=inherit;overflow=hidden;fillColor=none;top=0;left=0;bottom=0;right=0;pointerEvents=1;fontSize=18;" parent="125" vertex="1">
                    <mxGeometry width="40" height="40" as="geometry">
                        <mxRectangle width="40" height="40" as="alternateBounds"/>
                    </mxGeometry>
                </mxCell>
                <mxCell id="127" value="" style="shape=tableRow;horizontal=0;startSize=0;swimlaneHead=0;swimlaneBody=0;strokeColor=inherit;top=0;left=0;bottom=0;right=0;collapsible=0;dropTarget=0;fillColor=none;points=[[0,0.5],[1,0.5]];portConstraint=eastwest;fontSize=18;" parent="124" vertex="1">
                    <mxGeometry y="40" width="40" height="40" as="geometry"/>
                </mxCell>
                <mxCell id="128" value="&lt;font data-font-src=&quot;https://fonts.googleapis.com/css?family=Linux+Libertine&quot;&gt;1&lt;/font&gt;" style="shape=partialRectangle;html=1;whiteSpace=wrap;connectable=0;strokeColor=inherit;overflow=hidden;fillColor=none;top=0;left=0;bottom=0;right=0;pointerEvents=1;fontSize=18;" parent="127" vertex="1">
                    <mxGeometry width="40" height="40" as="geometry">
                        <mxRectangle width="40" height="40" as="alternateBounds"/>
                    </mxGeometry>
                </mxCell>
                <mxCell id="129" value="" style="shape=tableRow;horizontal=0;startSize=0;swimlaneHead=0;swimlaneBody=0;strokeColor=inherit;top=0;left=0;bottom=0;right=0;collapsible=0;dropTarget=0;fillColor=none;points=[[0,0.5],[1,0.5]];portConstraint=eastwest;fontSize=18;" parent="124" vertex="1">
                    <mxGeometry y="80" width="40" height="40" as="geometry"/>
                </mxCell>
                <mxCell id="130" value="3" style="shape=partialRectangle;html=1;whiteSpace=wrap;connectable=0;strokeColor=inherit;overflow=hidden;fillColor=none;top=0;left=0;bottom=0;right=0;pointerEvents=1;fontSize=18;" parent="129" vertex="1">
                    <mxGeometry width="40" height="40" as="geometry">
                        <mxRectangle width="40" height="40" as="alternateBounds"/>
                    </mxGeometry>
                </mxCell>
                <mxCell id="131" value="" style="shape=tableRow;horizontal=0;startSize=0;swimlaneHead=0;swimlaneBody=0;strokeColor=inherit;top=0;left=0;bottom=0;right=0;collapsible=0;dropTarget=0;fillColor=none;points=[[0,0.5],[1,0.5]];portConstraint=eastwest;fontSize=18;" parent="124" vertex="1">
                    <mxGeometry y="120" width="40" height="40" as="geometry"/>
                </mxCell>
                <mxCell id="132" value="5" style="shape=partialRectangle;html=1;whiteSpace=wrap;connectable=0;strokeColor=inherit;overflow=hidden;fillColor=none;top=0;left=0;bottom=0;right=0;pointerEvents=1;fontSize=18;" parent="131" vertex="1">
                    <mxGeometry width="40" height="40" as="geometry">
                        <mxRectangle width="40" height="40" as="alternateBounds"/>
                    </mxGeometry>
                </mxCell>
                <mxCell id="145" value="&lt;h3&gt;&lt;font data-font-src=&quot;https://fonts.googleapis.com/css?family=Linux+Libertine&quot; face=&quot;Linux Libertine&quot; style=&quot;font-size: 24px;&quot;&gt;COO&amp;nbsp;&lt;/font&gt;&lt;/h3&gt;" style="text;html=1;strokeColor=none;fillColor=none;align=center;verticalAlign=middle;whiteSpace=wrap;rounded=0;fontSize=18;" parent="1" vertex="1">
                    <mxGeometry x="139.75" y="9382" width="92.5" height="29" as="geometry"/>
                </mxCell>
                <mxCell id="146" value="&lt;font face=&quot;Linux Libertine&quot;&gt;src&lt;/font&gt;" style="text;html=1;strokeColor=none;fillColor=none;align=center;verticalAlign=middle;whiteSpace=wrap;rounded=0;fontSize=24;" parent="1" vertex="1">
                    <mxGeometry x="28" y="9481" width="60" height="30" as="geometry"/>
                </mxCell>
                <mxCell id="147" value="&lt;font data-font-src=&quot;https://fonts.googleapis.com/css?family=Linux+Libertine&quot; face=&quot;Linux Libertine&quot;&gt;dst&lt;/font&gt;" style="text;html=1;strokeColor=none;fillColor=none;align=center;verticalAlign=middle;whiteSpace=wrap;rounded=0;fontSize=24;" parent="1" vertex="1">
                    <mxGeometry x="28" y="9530" width="60" height="30" as="geometry"/>
                </mxCell>
                <mxCell id="148" value="&lt;font data-font-src=&quot;https://fonts.googleapis.com/css?family=Linux+Libertine&quot; face=&quot;Linux Libertine&quot;&gt;values&lt;/font&gt;" style="text;html=1;strokeColor=none;fillColor=none;align=center;verticalAlign=middle;whiteSpace=wrap;rounded=0;fontSize=24;" parent="1" vertex="1">
                    <mxGeometry x="21" y="9433" width="74" height="30" as="geometry"/>
                </mxCell>
                <mxCell id="149" value="" style="shape=table;startSize=0;container=1;collapsible=0;childLayout=tableLayout;fontSize=24;strokeWidth=0;" parent="1" vertex="1">
                    <mxGeometry x="103" y="9483" width="160" height="32" as="geometry"/>
                </mxCell>
                <mxCell id="150" value="" style="shape=tableRow;horizontal=0;startSize=0;swimlaneHead=0;swimlaneBody=0;strokeColor=inherit;top=0;left=0;bottom=0;right=0;collapsible=0;dropTarget=0;fillColor=none;points=[[0,0.5],[1,0.5]];portConstraint=eastwest;fontSize=24;" parent="149" vertex="1">
                    <mxGeometry width="160" height="32" as="geometry"/>
                </mxCell>
                <mxCell id="151" value="&lt;font data-font-src=&quot;https://fonts.googleapis.com/css?family=Linux+Libertine&quot; style=&quot;font-size: 18px;&quot;&gt;0&lt;/font&gt;" style="shape=partialRectangle;html=1;whiteSpace=wrap;connectable=0;strokeColor=#d6b656;overflow=hidden;fillColor=#fff2cc;top=0;left=0;bottom=0;right=0;pointerEvents=1;fontSize=24;strokeWidth=1;" parent="150" vertex="1">
                    <mxGeometry width="54" height="32" as="geometry">
                        <mxRectangle width="54" height="32" as="alternateBounds"/>
                    </mxGeometry>
                </mxCell>
                <mxCell id="152" value="&lt;font data-font-src=&quot;https://fonts.googleapis.com/css?family=Linux+Libertine&quot; style=&quot;font-size: 18px;&quot;&gt;2&lt;/font&gt;" style="shape=partialRectangle;html=1;whiteSpace=wrap;connectable=0;strokeColor=inherit;overflow=hidden;fillColor=none;top=0;left=0;bottom=0;right=0;pointerEvents=1;fontSize=24;strokeWidth=0;" parent="150" vertex="1">
                    <mxGeometry x="54" width="52" height="32" as="geometry">
                        <mxRectangle width="52" height="32" as="alternateBounds"/>
                    </mxGeometry>
                </mxCell>
                <mxCell id="153" value="&lt;font style=&quot;font-size: 18px;&quot; data-font-src=&quot;https://fonts.googleapis.com/css?family=Linux+Libertine&quot;&gt;2&lt;/font&gt;" style="shape=partialRectangle;html=1;whiteSpace=wrap;connectable=0;strokeColor=default;overflow=hidden;fillColor=#CCFFE6;top=0;left=0;bottom=0;right=0;pointerEvents=1;fontSize=24;strokeWidth=1;fillStyle=auto;" parent="150" vertex="1">
                    <mxGeometry x="106" width="54" height="32" as="geometry">
                        <mxRectangle width="54" height="32" as="alternateBounds"/>
                    </mxGeometry>
                </mxCell>
                <mxCell id="293" value="" style="endArrow=none;html=1;" parent="1" edge="1">
                    <mxGeometry width="50" height="50" relative="1" as="geometry">
                        <mxPoint x="340" y="9266.5" as="sourcePoint"/>
                        <mxPoint x="364" y="9242.5" as="targetPoint"/>
                    </mxGeometry>
                </mxCell>
                <mxCell id="294" value="" style="endArrow=none;html=1;" parent="1" edge="1">
                    <mxGeometry width="50" height="50" relative="1" as="geometry">
                        <mxPoint x="341" y="9243.5" as="sourcePoint"/>
                        <mxPoint x="365" y="9267.5" as="targetPoint"/>
                    </mxGeometry>
                </mxCell>
                <mxCell id="295" value="" style="shape=table;startSize=0;container=1;collapsible=0;childLayout=tableLayout;fontSize=18;strokeWidth=0.5;" parent="1" vertex="1">
                    <mxGeometry x="467" y="9175" width="40" height="160" as="geometry"/>
                </mxCell>
                <mxCell id="296" value="" style="shape=tableRow;horizontal=0;startSize=0;swimlaneHead=0;swimlaneBody=0;strokeColor=inherit;top=0;left=0;bottom=0;right=0;collapsible=0;dropTarget=0;fillColor=none;points=[[0,0.5],[1,0.5]];portConstraint=eastwest;fontSize=18;" parent="295" vertex="1">
                    <mxGeometry width="40" height="40" as="geometry"/>
                </mxCell>
                <mxCell id="297" value="1" style="shape=partialRectangle;html=1;whiteSpace=wrap;connectable=0;strokeColor=inherit;overflow=hidden;fillColor=none;top=0;left=0;bottom=0;right=0;pointerEvents=1;fontSize=18;" parent="296" vertex="1">
                    <mxGeometry width="40" height="40" as="geometry">
                        <mxRectangle width="40" height="40" as="alternateBounds"/>
                    </mxGeometry>
                </mxCell>
                <mxCell id="298" value="" style="shape=tableRow;horizontal=0;startSize=0;swimlaneHead=0;swimlaneBody=0;strokeColor=inherit;top=0;left=0;bottom=0;right=0;collapsible=0;dropTarget=0;fillColor=none;points=[[0,0.5],[1,0.5]];portConstraint=eastwest;fontSize=18;" parent="295" vertex="1">
                    <mxGeometry y="40" width="40" height="40" as="geometry"/>
                </mxCell>
                <mxCell id="299" value="0" style="shape=partialRectangle;html=1;whiteSpace=wrap;connectable=0;strokeColor=inherit;overflow=hidden;fillColor=none;top=0;left=0;bottom=0;right=0;pointerEvents=1;fontSize=18;" parent="298" vertex="1">
                    <mxGeometry width="40" height="40" as="geometry">
                        <mxRectangle width="40" height="40" as="alternateBounds"/>
                    </mxGeometry>
                </mxCell>
                <mxCell id="300" value="" style="shape=tableRow;horizontal=0;startSize=0;swimlaneHead=0;swimlaneBody=0;strokeColor=inherit;top=0;left=0;bottom=0;right=0;collapsible=0;dropTarget=0;fillColor=none;points=[[0,0.5],[1,0.5]];portConstraint=eastwest;fontSize=18;" parent="295" vertex="1">
                    <mxGeometry y="80" width="40" height="40" as="geometry"/>
                </mxCell>
                <mxCell id="301" value="56" style="shape=partialRectangle;html=1;whiteSpace=wrap;connectable=0;strokeColor=inherit;overflow=hidden;fillColor=none;top=0;left=0;bottom=0;right=0;pointerEvents=1;fontSize=18;" parent="300" vertex="1">
                    <mxGeometry width="40" height="40" as="geometry">
                        <mxRectangle width="40" height="40" as="alternateBounds"/>
                    </mxGeometry>
                </mxCell>
                <mxCell id="302" value="" style="shape=tableRow;horizontal=0;startSize=0;swimlaneHead=0;swimlaneBody=0;strokeColor=inherit;top=0;left=0;bottom=0;right=0;collapsible=0;dropTarget=0;fillColor=none;points=[[0,0.5],[1,0.5]];portConstraint=eastwest;fontSize=18;" parent="295" vertex="1">
                    <mxGeometry y="120" width="40" height="40" as="geometry"/>
                </mxCell>
                <mxCell id="303" value="0" style="shape=partialRectangle;html=1;whiteSpace=wrap;connectable=0;strokeColor=inherit;overflow=hidden;fillColor=none;top=0;left=0;bottom=0;right=0;pointerEvents=1;fontSize=18;" parent="302" vertex="1">
                    <mxGeometry width="40" height="40" as="geometry">
                        <mxRectangle width="40" height="40" as="alternateBounds"/>
                    </mxGeometry>
                </mxCell>
                <mxCell id="304" value="" style="line;strokeWidth=1;html=1;perimeter=backbonePerimeter;points=[];outlineConnect=0;fillColor=none;" parent="1" vertex="1">
                    <mxGeometry x="432" y="9245" width="24" height="10" as="geometry"/>
                </mxCell>
                <mxCell id="305" value="" style="line;strokeWidth=1;html=1;perimeter=backbonePerimeter;points=[];outlineConnect=0;fillColor=none;" parent="1" vertex="1">
                    <mxGeometry x="432" y="9255" width="24" height="10" as="geometry"/>
                </mxCell>
                <mxCell id="306" value="&lt;h3&gt;&lt;font data-font-src=&quot;https://fonts.googleapis.com/css?family=Linux+Libertine&quot; face=&quot;Linux Libertine&quot; style=&quot;font-size: 24px;&quot;&gt;CSR&amp;nbsp;&lt;/font&gt;&lt;/h3&gt;" style="text;html=1;strokeColor=none;fillColor=none;align=center;verticalAlign=middle;whiteSpace=wrap;rounded=0;fontSize=18;" parent="1" vertex="1">
                    <mxGeometry x="136" y="9588" width="94" height="38" as="geometry"/>
                </mxCell>
                <mxCell id="309" value="&lt;font data-font-src=&quot;https://fonts.googleapis.com/css?family=Linux+Libertine&quot; face=&quot;Linux Libertine&quot;&gt;values&lt;/font&gt;" style="text;html=1;strokeColor=none;fillColor=none;align=center;verticalAlign=middle;whiteSpace=wrap;rounded=0;fontSize=24;" parent="1" vertex="1">
                    <mxGeometry x="23" y="9634" width="74" height="30" as="geometry"/>
                </mxCell>
                <mxCell id="310" value="" style="shape=table;startSize=0;container=1;collapsible=0;childLayout=tableLayout;fontSize=24;strokeWidth=0;" parent="1" vertex="1">
                    <mxGeometry x="105" y="9634" width="160" height="32" as="geometry"/>
                </mxCell>
                <mxCell id="311" value="" style="shape=tableRow;horizontal=0;startSize=0;swimlaneHead=0;swimlaneBody=0;strokeColor=inherit;top=0;left=0;bottom=0;right=0;collapsible=0;dropTarget=0;fillColor=none;points=[[0,0.5],[1,0.5]];portConstraint=eastwest;fontSize=24;" parent="310" vertex="1">
                    <mxGeometry width="160" height="32" as="geometry"/>
                </mxCell>
                <mxCell id="312" value="&lt;font style=&quot;font-size: 18px;&quot;&gt;1&lt;/font&gt;" style="shape=partialRectangle;html=1;whiteSpace=wrap;connectable=0;strokeColor=inherit;overflow=hidden;fillColor=none;top=0;left=0;bottom=0;right=0;pointerEvents=1;fontSize=24;" parent="311" vertex="1">
                    <mxGeometry width="53" height="32" as="geometry">
                        <mxRectangle width="53" height="32" as="alternateBounds"/>
                    </mxGeometry>
                </mxCell>
                <mxCell id="313" value="&lt;font style=&quot;font-size: 18px;&quot;&gt;3&lt;/font&gt;" style="shape=partialRectangle;html=1;whiteSpace=wrap;connectable=0;strokeColor=#6c8ebf;overflow=hidden;fillColor=#dae8fc;top=0;left=0;bottom=0;right=0;pointerEvents=1;fontSize=24;" parent="311" vertex="1">
                    <mxGeometry x="53" width="54" height="32" as="geometry">
                        <mxRectangle width="54" height="32" as="alternateBounds"/>
                    </mxGeometry>
                </mxCell>
                <mxCell id="314" value="&lt;font style=&quot;font-size: 18px;&quot;&gt;10&lt;/font&gt;" style="shape=partialRectangle;html=1;whiteSpace=wrap;connectable=0;strokeColor=#6c8ebf;overflow=hidden;fillColor=#dae8fc;top=0;left=0;bottom=0;right=0;pointerEvents=1;fontSize=24;" parent="311" vertex="1">
                    <mxGeometry x="107" width="53" height="32" as="geometry">
                        <mxRectangle width="53" height="32" as="alternateBounds"/>
                    </mxGeometry>
                </mxCell>
                <mxCell id="315" value="" style="shape=table;startSize=0;container=1;collapsible=0;childLayout=tableLayout;fontSize=24;strokeWidth=0;" parent="1" vertex="1">
                    <mxGeometry x="106" y="9683" width="160" height="32" as="geometry"/>
                </mxCell>
                <mxCell id="316" value="" style="shape=tableRow;horizontal=0;startSize=0;swimlaneHead=0;swimlaneBody=0;strokeColor=inherit;top=0;left=0;bottom=0;right=0;collapsible=0;dropTarget=0;fillColor=none;points=[[0,0.5],[1,0.5]];portConstraint=eastwest;fontSize=24;" parent="315" vertex="1">
                    <mxGeometry width="160" height="32" as="geometry"/>
                </mxCell>
                <mxCell id="317" value="&lt;font style=&quot;font-size: 18px;&quot;&gt;1&lt;/font&gt;" style="shape=partialRectangle;html=1;whiteSpace=wrap;connectable=0;strokeColor=inherit;overflow=hidden;fillColor=none;top=0;left=0;bottom=0;right=0;pointerEvents=1;fontSize=24;" parent="316" vertex="1">
                    <mxGeometry width="53" height="32" as="geometry">
                        <mxRectangle width="53" height="32" as="alternateBounds"/>
                    </mxGeometry>
                </mxCell>
                <mxCell id="318" value="&lt;font style=&quot;font-size: 18px;&quot;&gt;0&lt;/font&gt;" style="shape=partialRectangle;html=1;whiteSpace=wrap;connectable=0;strokeColor=#d79b00;overflow=hidden;fillColor=#FFE6CC;top=0;left=0;bottom=0;right=0;pointerEvents=1;fontSize=24;" parent="316" vertex="1">
                    <mxGeometry x="53" width="54" height="32" as="geometry">
                        <mxRectangle width="54" height="32" as="alternateBounds"/>
                    </mxGeometry>
                </mxCell>
                <mxCell id="319" value="&lt;font style=&quot;font-size: 18px;&quot;&gt;3&lt;/font&gt;" style="shape=partialRectangle;html=1;whiteSpace=wrap;connectable=0;strokeColor=#b85450;overflow=hidden;fillColor=#FFE6CC;top=0;left=0;bottom=0;right=0;pointerEvents=1;fontSize=24;strokeWidth=0.5;" parent="316" vertex="1">
                    <mxGeometry x="107" width="53" height="32" as="geometry">
                        <mxRectangle width="53" height="32" as="alternateBounds"/>
                    </mxGeometry>
                </mxCell>
                <mxCell id="320" value="" style="shape=table;startSize=0;container=1;collapsible=0;childLayout=tableLayout;fontSize=24;strokeWidth=0;" parent="1" vertex="1">
                    <mxGeometry x="105" y="9733" width="265" height="32" as="geometry"/>
                </mxCell>
                <mxCell id="321" value="" style="shape=tableRow;horizontal=0;startSize=0;swimlaneHead=0;swimlaneBody=0;strokeColor=inherit;top=0;left=0;bottom=0;right=0;collapsible=0;dropTarget=0;fillColor=none;points=[[0,0.5],[1,0.5]];portConstraint=eastwest;fontSize=24;" parent="320" vertex="1">
                    <mxGeometry width="265" height="32" as="geometry"/>
                </mxCell>
                <mxCell id="322" value="&lt;font style=&quot;font-size: 18px;&quot;&gt;0&lt;/font&gt;" style="shape=partialRectangle;html=1;whiteSpace=wrap;connectable=0;strokeColor=inherit;overflow=hidden;fillColor=none;top=0;left=0;bottom=0;right=0;pointerEvents=1;fontSize=24;" parent="321" vertex="1">
                    <mxGeometry width="53" height="32" as="geometry">
                        <mxRectangle width="53" height="32" as="alternateBounds"/>
                    </mxGeometry>
                </mxCell>
                <mxCell id="323" value="&lt;font style=&quot;font-size: 18px;&quot;&gt;1&lt;/font&gt;" style="shape=partialRectangle;html=1;whiteSpace=wrap;connectable=0;strokeColor=inherit;overflow=hidden;fillColor=none;top=0;left=0;bottom=0;right=0;pointerEvents=1;fontSize=24;" parent="321" vertex="1">
                    <mxGeometry x="53" width="54" height="32" as="geometry">
                        <mxRectangle width="54" height="32" as="alternateBounds"/>
                    </mxGeometry>
                </mxCell>
                <mxCell id="324" value="&lt;font style=&quot;font-size: 18px;&quot;&gt;1&lt;/font&gt;" style="shape=partialRectangle;html=1;whiteSpace=wrap;connectable=0;strokeColor=inherit;overflow=hidden;fillColor=none;top=0;left=0;bottom=0;right=0;pointerEvents=1;fontSize=24;" parent="321" vertex="1">
                    <mxGeometry x="107" width="53" height="32" as="geometry">
                        <mxRectangle width="53" height="32" as="alternateBounds"/>
                    </mxGeometry>
                </mxCell>
                <mxCell id="331" value="&lt;font style=&quot;font-size: 18px;&quot;&gt;3&lt;/font&gt;" style="shape=partialRectangle;html=1;whiteSpace=wrap;connectable=0;strokeColor=inherit;overflow=hidden;fillColor=none;top=0;left=0;bottom=0;right=0;pointerEvents=1;fontSize=24;" parent="321" vertex="1">
                    <mxGeometry x="160" width="53" height="32" as="geometry">
                        <mxRectangle width="53" height="32" as="alternateBounds"/>
                    </mxGeometry>
                </mxCell>
                <mxCell id="332" value="&lt;font style=&quot;font-size: 18px;&quot;&gt;3&lt;/font&gt;" style="shape=partialRectangle;html=1;whiteSpace=wrap;connectable=0;strokeColor=inherit;overflow=hidden;fillColor=none;top=0;left=0;bottom=0;right=0;pointerEvents=1;fontSize=24;" parent="321" vertex="1">
                    <mxGeometry x="213" width="52" height="32" as="geometry">
                        <mxRectangle width="52" height="32" as="alternateBounds"/>
                    </mxGeometry>
                </mxCell>
                <mxCell id="325" value="&lt;h3&gt;&lt;span style=&quot;font-size: 24px;&quot;&gt;&lt;font data-font-src=&quot;https://fonts.googleapis.com/css?family=Linux+Libertine&quot; face=&quot;Linux Libertine&quot;&gt;SpMV&lt;/font&gt;&lt;/span&gt;&lt;/h3&gt;" style="text;html=1;strokeColor=none;fillColor=none;align=center;verticalAlign=middle;whiteSpace=wrap;rounded=0;fontSize=18;" parent="1" vertex="1">
                    <mxGeometry x="241" y="9125" width="208" height="35" as="geometry"/>
                </mxCell>
                <mxCell id="326" value="&lt;font data-font-src=&quot;https://fonts.googleapis.com/css?family=Linux+Libertine&quot; face=&quot;Linux Libertine&quot;&gt;idx&lt;/font&gt;" style="text;html=1;strokeColor=none;fillColor=none;align=center;verticalAlign=middle;whiteSpace=wrap;rounded=0;fontSize=24;" parent="1" vertex="1">
                    <mxGeometry x="24" y="9684" width="74" height="30" as="geometry"/>
                </mxCell>
                <mxCell id="327" value="&lt;font data-font-src=&quot;https://fonts.googleapis.com/css?family=Linux+Libertine&quot; face=&quot;Linux Libertine&quot;&gt;ptr&lt;/font&gt;" style="text;html=1;strokeColor=none;fillColor=none;align=center;verticalAlign=middle;whiteSpace=wrap;rounded=0;fontSize=24;" parent="1" vertex="1">
                    <mxGeometry x="23" y="9733" width="74" height="30" as="geometry"/>
                </mxCell>
                <mxCell id="333" value="" style="shape=table;startSize=0;container=1;collapsible=0;childLayout=tableLayout;fontSize=24;strokeWidth=0;" parent="1" vertex="1">
                    <mxGeometry x="103" y="9530" width="160" height="32" as="geometry"/>
                </mxCell>
                <mxCell id="334" value="" style="shape=tableRow;horizontal=0;startSize=0;swimlaneHead=0;swimlaneBody=0;strokeColor=inherit;top=0;left=0;bottom=0;right=0;collapsible=0;dropTarget=0;fillColor=none;points=[[0,0.5],[1,0.5]];portConstraint=eastwest;fontSize=24;" parent="333" vertex="1">
                    <mxGeometry width="160" height="32" as="geometry"/>
                </mxCell>
                <mxCell id="335" value="&lt;font data-font-src=&quot;https://fonts.googleapis.com/css?family=Linux+Libertine&quot; style=&quot;font-size: 18px;&quot;&gt;1&lt;/font&gt;" style="shape=partialRectangle;html=1;whiteSpace=wrap;connectable=0;strokeColor=#82b366;overflow=hidden;fillColor=#FFF2CC;top=0;left=0;bottom=0;right=0;pointerEvents=1;fontSize=24;" parent="334" vertex="1">
                    <mxGeometry width="54" height="32" as="geometry">
                        <mxRectangle width="54" height="32" as="alternateBounds"/>
                    </mxGeometry>
                </mxCell>
                <mxCell id="336" value="&lt;font data-font-src=&quot;https://fonts.googleapis.com/css?family=Linux+Libertine&quot; style=&quot;font-size: 18px;&quot;&gt;0&lt;/font&gt;" style="shape=partialRectangle;html=1;whiteSpace=wrap;connectable=0;strokeColor=inherit;overflow=hidden;fillColor=none;top=0;left=0;bottom=0;right=0;pointerEvents=1;fontSize=24;" parent="334" vertex="1">
                    <mxGeometry x="54" width="52" height="32" as="geometry">
                        <mxRectangle width="52" height="32" as="alternateBounds"/>
                    </mxGeometry>
                </mxCell>
                <mxCell id="337" value="&lt;font style=&quot;font-size: 18px;&quot; data-font-src=&quot;https://fonts.googleapis.com/css?family=Linux+Libertine&quot;&gt;3&lt;/font&gt;" style="shape=partialRectangle;html=1;whiteSpace=wrap;connectable=0;strokeColor=#82b366;overflow=hidden;fillColor=#CCFFE6;top=0;left=0;bottom=0;right=0;pointerEvents=1;fontSize=24;" parent="334" vertex="1">
                    <mxGeometry x="106" width="54" height="32" as="geometry">
                        <mxRectangle width="54" height="32" as="alternateBounds"/>
                    </mxGeometry>
                </mxCell>
                <mxCell id="338" value="" style="shape=table;startSize=0;container=1;collapsible=0;childLayout=tableLayout;fontSize=24;strokeWidth=0;" parent="1" vertex="1">
                    <mxGeometry x="103" y="9434.5" width="160" height="32" as="geometry"/>
                </mxCell>
                <mxCell id="339" value="" style="shape=tableRow;horizontal=0;startSize=0;swimlaneHead=0;swimlaneBody=0;strokeColor=inherit;top=0;left=0;bottom=0;right=0;collapsible=0;dropTarget=0;fillColor=none;points=[[0,0.5],[1,0.5]];portConstraint=eastwest;fontSize=24;" parent="338" vertex="1">
                    <mxGeometry width="160" height="32" as="geometry"/>
                </mxCell>
                <mxCell id="340" value="&lt;font data-font-src=&quot;https://fonts.googleapis.com/css?family=Linux+Libertine&quot; style=&quot;font-size: 18px;&quot;&gt;1&lt;/font&gt;" style="shape=partialRectangle;html=1;whiteSpace=wrap;connectable=0;strokeColor=#6c8ebf;overflow=hidden;fillColor=#DAE8FC;top=0;left=0;bottom=0;right=0;pointerEvents=1;fontSize=24;" parent="339" vertex="1">
                    <mxGeometry width="54" height="32" as="geometry">
                        <mxRectangle width="54" height="32" as="alternateBounds"/>
                    </mxGeometry>
                </mxCell>
                <mxCell id="341" value="&lt;font data-font-src=&quot;https://fonts.googleapis.com/css?family=Linux+Libertine&quot; style=&quot;font-size: 18px;&quot;&gt;3&lt;/font&gt;" style="shape=partialRectangle;html=1;whiteSpace=wrap;connectable=0;strokeColor=inherit;overflow=hidden;fillColor=none;top=0;left=0;bottom=0;right=0;pointerEvents=1;fontSize=24;" parent="339" vertex="1">
                    <mxGeometry x="54" width="52" height="32" as="geometry">
                        <mxRectangle width="52" height="32" as="alternateBounds"/>
                    </mxGeometry>
                </mxCell>
                <mxCell id="342" value="&lt;font style=&quot;font-size: 18px;&quot; data-font-src=&quot;https://fonts.googleapis.com/css?family=Linux+Libertine&quot;&gt;10&lt;/font&gt;" style="shape=partialRectangle;html=1;whiteSpace=wrap;connectable=0;strokeColor=#6c8ebf;overflow=hidden;fillColor=#dae8fc;top=0;left=0;bottom=0;right=0;pointerEvents=1;fontSize=24;" parent="339" vertex="1">
                    <mxGeometry x="106" width="54" height="32" as="geometry">
                        <mxRectangle width="54" height="32" as="alternateBounds"/>
                    </mxGeometry>
                </mxCell>
                <mxCell id="343" value="&lt;h3&gt;&lt;font data-font-src=&quot;https://fonts.googleapis.com/css?family=Linux+Libertine&quot; face=&quot;Linux Libertine&quot; style=&quot;font-size: 24px;&quot;&gt;COO Compute&amp;nbsp;&lt;/font&gt;&lt;/h3&gt;" style="text;html=1;strokeColor=none;fillColor=none;align=center;verticalAlign=middle;whiteSpace=wrap;rounded=0;fontSize=18;" parent="1" vertex="1">
                    <mxGeometry x="364" y="9382" width="209" height="29" as="geometry"/>
                </mxCell>
                <mxCell id="353" value="&lt;h3&gt;&lt;font data-font-src=&quot;https://fonts.googleapis.com/css?family=Linux+Libertine&quot; face=&quot;Linux Libertine&quot; style=&quot;font-size: 24px;&quot;&gt;M&lt;/font&gt;&lt;font data-font-src=&quot;https://fonts.googleapis.com/css?family=Linux+Libertine&quot; face=&quot;Linux Libertine&quot; style=&quot;font-size: 20px;&quot;&gt;&lt;sub style=&quot;font-weight: normal;&quot;&gt;atrix&lt;/sub&gt;&lt;/font&gt;&lt;/h3&gt;" style="text;html=1;strokeColor=none;fillColor=none;align=center;verticalAlign=middle;whiteSpace=wrap;rounded=0;fontSize=18;fontStyle=1" parent="1" vertex="1">
                    <mxGeometry x="208" y="9340" width="79" height="29" as="geometry"/>
                </mxCell>
                <mxCell id="354" value="&lt;h3&gt;&lt;font data-font-src=&quot;https://fonts.googleapis.com/css?family=Linux+Libertine&quot; face=&quot;Linux Libertine&quot; style=&quot;font-size: 24px;&quot;&gt;V&lt;sub style=&quot;font-weight: normal;&quot;&gt;ector&lt;/sub&gt;&lt;/font&gt;&lt;/h3&gt;" style="text;html=1;strokeColor=none;fillColor=none;align=center;verticalAlign=middle;whiteSpace=wrap;rounded=0;fontSize=18;fontStyle=1" parent="1" vertex="1">
                    <mxGeometry x="369" y="9340" width="61" height="29" as="geometry"/>
                </mxCell>
                <mxCell id="356" value="" style="shape=table;startSize=0;container=1;collapsible=0;childLayout=tableLayout;fontSize=24;strokeWidth=0.5;" parent="1" vertex="1">
                    <mxGeometry x="304" y="9427" width="272" height="64" as="geometry"/>
                </mxCell>
                <mxCell id="357" value="" style="shape=tableRow;horizontal=0;startSize=0;swimlaneHead=0;swimlaneBody=0;strokeColor=inherit;top=0;left=0;bottom=0;right=0;collapsible=0;dropTarget=0;fillColor=none;points=[[0,0.5],[1,0.5]];portConstraint=eastwest;fontSize=24;" parent="356" vertex="1">
                    <mxGeometry width="272" height="64" as="geometry"/>
                </mxCell>
                <mxCell id="358" value="&lt;font face=&quot;Linux Libertine&quot; data-font-src=&quot;https://fonts.googleapis.com/css?family=Linux+Libertine&quot; style=&quot;font-size: 18px;&quot;&gt;Read&lt;br&gt;R&lt;span style=&quot;background-color: rgb(255, 242, 204);&quot;&gt;[0]&lt;/span&gt;&lt;/font&gt;" style="shape=partialRectangle;html=1;whiteSpace=wrap;connectable=0;strokeColor=inherit;overflow=hidden;fillColor=none;top=0;left=0;bottom=0;right=0;pointerEvents=1;fontSize=24;strokeWidth=1;" parent="357" vertex="1">
                    <mxGeometry width="60" height="64" as="geometry">
                        <mxRectangle width="60" height="64" as="alternateBounds"/>
                    </mxGeometry>
                </mxCell>
                <mxCell id="359" value="&lt;font data-font-src=&quot;https://fonts.googleapis.com/css?family=Linux+Libertine&quot; style=&quot;font-size: 18px;&quot;&gt;&lt;font data-font-src=&quot;https://fonts.googleapis.com/css?family=Linux+Libertine&quot; face=&quot;Linux Libertine&quot;&gt;Accumulate&lt;br&gt;R&lt;span style=&quot;background-color: rgb(255, 242, 204);&quot;&gt;[0]&lt;/span&gt; += V&lt;span style=&quot;background-color: rgb(255, 242, 204);&quot;&gt;[1]&lt;/span&gt; * &lt;span style=&quot;background-color: rgb(218, 232, 252);&quot;&gt;1&lt;/span&gt;&amp;nbsp;&lt;/font&gt;&lt;br&gt;&lt;/font&gt;" style="shape=partialRectangle;html=1;whiteSpace=wrap;connectable=0;strokeColor=inherit;overflow=hidden;fillColor=none;top=0;left=0;bottom=0;right=0;pointerEvents=1;fontSize=24;" parent="357" vertex="1">
                    <mxGeometry x="60" width="139" height="64" as="geometry">
                        <mxRectangle width="139" height="64" as="alternateBounds"/>
                    </mxGeometry>
                </mxCell>
                <mxCell id="360" value="&lt;span style=&quot;font-size: 18px;&quot;&gt;&lt;font data-font-src=&quot;https://fonts.googleapis.com/css?family=Linux+Libertine&quot; face=&quot;Linux Libertine&quot;&gt;Write&lt;br&gt;R&lt;span style=&quot;background-color: rgb(255, 242, 204);&quot;&gt;[0]&lt;/span&gt;&lt;/font&gt;&lt;/span&gt;" style="shape=partialRectangle;html=1;whiteSpace=wrap;connectable=0;strokeColor=inherit;overflow=hidden;fillColor=none;top=0;left=0;bottom=0;right=0;pointerEvents=1;fontSize=24;" parent="357" vertex="1">
                    <mxGeometry x="199" width="73" height="64" as="geometry">
                        <mxRectangle width="73" height="64" as="alternateBounds"/>
                    </mxGeometry>
                </mxCell>
                <mxCell id="361" value="&lt;h3&gt;&lt;font data-font-src=&quot;https://fonts.googleapis.com/css?family=Linux+Libertine&quot; face=&quot;Linux Libertine&quot; style=&quot;font-size: 24px;&quot;&gt;R&lt;sub style=&quot;font-weight: normal;&quot;&gt;esult&lt;/sub&gt;&lt;/font&gt;&lt;/h3&gt;" style="text;html=1;strokeColor=none;fillColor=none;align=center;verticalAlign=middle;whiteSpace=wrap;rounded=0;fontSize=18;fontStyle=1" parent="1" vertex="1">
                    <mxGeometry x="460" y="9340" width="61" height="29" as="geometry"/>
                </mxCell>
                <mxCell id="362" value="&lt;h3&gt;&lt;font data-font-src=&quot;https://fonts.googleapis.com/css?family=Linux+Libertine&quot; face=&quot;Linux Libertine&quot; style=&quot;font-size: 24px;&quot;&gt;CSR Compute&amp;nbsp;&lt;/font&gt;&lt;/h3&gt;" style="text;html=1;strokeColor=none;fillColor=none;align=center;verticalAlign=middle;whiteSpace=wrap;rounded=0;fontSize=18;" parent="1" vertex="1">
                    <mxGeometry x="361" y="9592.5" width="209" height="29" as="geometry"/>
                </mxCell>
                <mxCell id="363" value="" style="shape=table;startSize=0;container=1;collapsible=0;childLayout=tableLayout;fontSize=24;strokeWidth=0.5;" parent="1" vertex="1">
                    <mxGeometry x="304" y="9636" width="358" height="67" as="geometry"/>
                </mxCell>
                <mxCell id="364" value="" style="shape=tableRow;horizontal=0;startSize=0;swimlaneHead=0;swimlaneBody=0;strokeColor=inherit;top=0;left=0;bottom=0;right=0;collapsible=0;dropTarget=0;fillColor=none;points=[[0,0.5],[1,0.5]];portConstraint=eastwest;fontSize=24;" parent="363" vertex="1">
                    <mxGeometry width="358" height="67" as="geometry"/>
                </mxCell>
                <mxCell id="365" value="&lt;font face=&quot;Linux Libertine&quot; data-font-src=&quot;https://fonts.googleapis.com/css?family=Linux+Libertine&quot; style=&quot;font-size: 18px;&quot;&gt;Read&lt;br&gt;&lt;b&gt;R&lt;/b&gt;&lt;span style=&quot;background-color: rgb(153, 255, 255);&quot;&gt;[2]&lt;/span&gt;&lt;/font&gt;" style="shape=partialRectangle;html=1;whiteSpace=wrap;connectable=0;strokeColor=inherit;overflow=hidden;fillColor=none;top=0;left=0;bottom=0;right=0;pointerEvents=1;fontSize=24;strokeWidth=1;" parent="364" vertex="1">
                    <mxGeometry width="70" height="67" as="geometry">
                        <mxRectangle width="70" height="67" as="alternateBounds"/>
                    </mxGeometry>
                </mxCell>
                <mxCell id="366" value="&lt;font data-font-src=&quot;https://fonts.googleapis.com/css?family=Linux+Libertine&quot; style=&quot;font-size: 18px;&quot;&gt;&lt;font data-font-src=&quot;https://fonts.googleapis.com/css?family=Linux+Libertine&quot; face=&quot;Linux Libertine&quot;&gt;Accumulate&lt;br&gt;&lt;b&gt;R&lt;/b&gt;&lt;span style=&quot;background-color: rgb(153, 255, 255);&quot;&gt;[2]&lt;/span&gt; += &lt;b&gt;V&lt;/b&gt;&lt;span style=&quot;background-color: rgb(255, 230, 204);&quot;&gt;[0]&lt;/span&gt; * &lt;span style=&quot;background-color: rgb(218, 232, 252);&quot;&gt;&lt;b&gt;3&lt;/b&gt;&lt;/span&gt;&amp;nbsp;+ &lt;b&gt;V&lt;/b&gt;&lt;span style=&quot;border-color: var(--border-color); background-color: rgb(255, 230, 204);&quot;&gt;[3]&lt;/span&gt;&amp;nbsp;* &lt;span style=&quot;background-color: rgb(218, 232, 252);&quot;&gt;&lt;b&gt;10&lt;/b&gt;&lt;/span&gt;&lt;/font&gt;&lt;br&gt;&lt;/font&gt;" style="shape=partialRectangle;html=1;whiteSpace=wrap;connectable=0;strokeColor=inherit;overflow=hidden;fillColor=none;top=0;left=0;bottom=0;right=0;pointerEvents=1;fontSize=24;" parent="364" vertex="1">
                    <mxGeometry x="70" width="216" height="67" as="geometry">
                        <mxRectangle width="216" height="67" as="alternateBounds"/>
                    </mxGeometry>
                </mxCell>
                <mxCell id="367" value="&lt;span style=&quot;font-size: 18px;&quot;&gt;&lt;font data-font-src=&quot;https://fonts.googleapis.com/css?family=Linux+Libertine&quot; face=&quot;Linux Libertine&quot;&gt;Write&lt;br&gt;&lt;b&gt;R&lt;/b&gt;&lt;span style=&quot;background-color: rgb(153, 255, 255);&quot;&gt;[2]&lt;/span&gt;&lt;/font&gt;&lt;/span&gt;" style="shape=partialRectangle;html=1;whiteSpace=wrap;connectable=0;strokeColor=inherit;overflow=hidden;fillColor=none;top=0;left=0;bottom=0;right=0;pointerEvents=1;fontSize=24;" parent="364" vertex="1">
                    <mxGeometry x="286" width="72" height="67" as="geometry">
                        <mxRectangle width="72" height="67" as="alternateBounds"/>
                    </mxGeometry>
                </mxCell>
                <mxCell id="385" value="" style="shape=table;startSize=0;container=1;collapsible=0;childLayout=tableLayout;fontSize=24;strokeWidth=0.5;" parent="1" vertex="1">
                    <mxGeometry x="389" y="9511" width="272" height="62.5" as="geometry"/>
                </mxCell>
                <mxCell id="386" value="" style="shape=tableRow;horizontal=0;startSize=0;swimlaneHead=0;swimlaneBody=0;strokeColor=inherit;top=0;left=0;bottom=0;right=0;collapsible=0;dropTarget=0;fillColor=none;points=[[0,0.5],[1,0.5]];portConstraint=eastwest;fontSize=24;" parent="385" vertex="1">
                    <mxGeometry width="272" height="63" as="geometry"/>
                </mxCell>
                <mxCell id="387" value="&lt;font face=&quot;Linux Libertine&quot; data-font-src=&quot;https://fonts.googleapis.com/css?family=Linux+Libertine&quot; style=&quot;font-size: 18px;&quot;&gt;Read&lt;br&gt;R&lt;span style=&quot;background-color: rgb(204, 255, 230);&quot;&gt;[2]&lt;/span&gt;&lt;/font&gt;" style="shape=partialRectangle;html=1;whiteSpace=wrap;connectable=0;strokeColor=inherit;overflow=hidden;fillColor=none;top=0;left=0;bottom=0;right=0;pointerEvents=1;fontSize=24;strokeWidth=1;" parent="386" vertex="1">
                    <mxGeometry width="60" height="63" as="geometry">
                        <mxRectangle width="60" height="63" as="alternateBounds"/>
                    </mxGeometry>
                </mxCell>
                <mxCell id="388" value="&lt;font data-font-src=&quot;https://fonts.googleapis.com/css?family=Linux+Libertine&quot; style=&quot;font-size: 18px;&quot;&gt;&lt;font data-font-src=&quot;https://fonts.googleapis.com/css?family=Linux+Libertine&quot; face=&quot;Linux Libertine&quot;&gt;Accumulate&lt;br&gt;R&lt;span style=&quot;background-color: rgb(204, 255, 230);&quot;&gt;[2]&lt;/span&gt; += V&lt;span style=&quot;background-color: rgb(204, 255, 230);&quot;&gt;[3]&lt;/span&gt; * &lt;span style=&quot;background-color: rgb(218, 232, 252);&quot;&gt;10&lt;/span&gt;&amp;nbsp;&lt;/font&gt;&lt;br&gt;&lt;/font&gt;" style="shape=partialRectangle;html=1;whiteSpace=wrap;connectable=0;strokeColor=inherit;overflow=hidden;fillColor=none;top=0;left=0;bottom=0;right=0;pointerEvents=1;fontSize=24;" parent="386" vertex="1">
                    <mxGeometry x="60" width="151" height="63" as="geometry">
                        <mxRectangle width="151" height="63" as="alternateBounds"/>
                    </mxGeometry>
                </mxCell>
                <mxCell id="389" value="&lt;span style=&quot;font-size: 18px;&quot;&gt;&lt;font data-font-src=&quot;https://fonts.googleapis.com/css?family=Linux+Libertine&quot; face=&quot;Linux Libertine&quot;&gt;Write&lt;br&gt;R&lt;span style=&quot;background-color: rgb(204, 255, 230);&quot;&gt;[2]&lt;/span&gt;&lt;/font&gt;&lt;/span&gt;" style="shape=partialRectangle;html=1;whiteSpace=wrap;connectable=0;strokeColor=inherit;overflow=hidden;fillColor=none;top=0;left=0;bottom=0;right=0;pointerEvents=1;fontSize=24;" parent="386" vertex="1">
                    <mxGeometry x="211" width="61" height="63" as="geometry">
                        <mxRectangle width="61" height="63" as="alternateBounds"/>
                    </mxGeometry>
                </mxCell>
                <mxCell id="390" value="&lt;h3&gt;&lt;font data-font-src=&quot;https://fonts.googleapis.com/css?family=Linux+Libertine&quot; face=&quot;Linux Libertine&quot; style=&quot;font-size: 24px;&quot;&gt;..............&lt;/font&gt;&lt;/h3&gt;" style="text;html=1;strokeColor=none;fillColor=none;align=center;verticalAlign=middle;whiteSpace=wrap;rounded=0;fontSize=18;" parent="1" vertex="1">
                    <mxGeometry x="342" y="9491" width="209" height="11.5" as="geometry"/>
                </mxCell>
            </root>
        </mxGraphModel>
    </diagram>
</mxfile>